<svg width="68" height="201" viewBox="0 0 68 201" fill="none" xmlns="http://www.w3.org/2000/svg">
<path d="M44.808 127.256C43.9547 128.109 42.888 128.621 41.608 128.792C36.4027 129.475 28.4667 129.816 17.8 129.816L2.824 129.56C1.544 129.475 0.904 128.877 0.904 127.768L1.16 126.488C2.35467 123.587 4.06133 119.619 6.28 114.584C8.584 109.549 13.3627 100.291 20.616 86.808C27.8693 73.24 35.2933 60.8667 42.888 49.688C50.6533 38.424 55.7307 31.8533 58.12 29.976C59.2293 29.0373 60.2533 28.568 61.192 28.568C61.8747 28.568 62.216 28.952 62.216 29.72C62.216 31.0853 61.064 34.1147 58.76 38.808C56.456 43.5013 54.4507 47.2987 52.744 50.2C32.8613 86.04 20.488 110.36 15.624 123.16C15.5387 123.416 15.496 123.672 15.496 123.928C15.496 125.379 16.9893 126.104 19.976 126.104C25.7787 126.104 31.1547 124.227 36.104 120.472C43.4427 114.584 50.0133 107.885 55.816 100.376C56.4987 99.6933 57.1813 99.352 57.864 99.352C58.5467 99.352 58.888 99.7787 58.888 100.632C58.888 101.485 58.4187 102.979 57.48 105.112C51.9333 117.144 47.7093 124.525 44.808 127.256Z" fill="#40197B"/>
<path d="M44.808 127.256L44.1226 126.528L44.1116 126.538L44.1009 126.549L44.808 127.256ZM41.608 128.792L41.738 129.784L41.7402 129.783L41.608 128.792ZM17.8 129.816L17.7829 130.816L17.7915 130.816H17.8V129.816ZM2.824 129.56L2.75748 130.558L2.78217 130.559L2.80691 130.56L2.824 129.56ZM0.904 127.768L-0.0765809 127.572L-0.0960002 127.669V127.768H0.904ZM1.16 126.488L0.235322 126.107L0.198424 126.197L0.179419 126.292L1.16 126.488ZM6.28 114.584L5.3706 114.168L5.36491 114.181L6.28 114.584ZM20.616 86.808L21.4967 87.2818L21.4979 87.2795L20.616 86.808ZM42.888 49.688L42.0647 49.1204L42.0608 49.126L42.888 49.688ZM58.12 29.976L58.7378 30.7623L58.7521 30.7511L58.7659 30.7394L58.12 29.976ZM52.744 50.2L51.8821 49.693L51.8757 49.7039L51.8696 49.7149L52.744 50.2ZM15.624 123.16L14.6892 122.805L14.6819 122.824L14.6753 122.844L15.624 123.16ZM36.104 120.472L36.7084 121.269L36.7192 121.26L36.7298 121.252L36.104 120.472ZM55.816 100.376L55.1089 99.6689L55.0638 99.714L55.0247 99.7646L55.816 100.376ZM57.48 105.112L58.3882 105.531L58.3918 105.523L58.3953 105.515L57.48 105.112ZM44.1009 126.549C43.414 127.236 42.5545 127.657 41.4758 127.801L41.7402 129.783C43.2216 129.586 44.4953 128.983 45.5151 127.963L44.1009 126.549ZM41.478 127.8C36.3402 128.474 28.4579 128.816 17.8 128.816V130.816C28.4754 130.816 36.4652 130.475 41.738 129.784L41.478 127.8ZM17.8171 128.816L2.84109 128.56L2.80691 130.56L17.7829 130.816L17.8171 128.816ZM2.89052 128.562C2.37671 128.528 2.15503 128.4 2.06632 128.317C2.0001 128.255 1.904 128.124 1.904 127.768H-0.0960002C-0.0960002 128.521 0.127895 129.244 0.701682 129.779C1.25297 130.294 1.99129 130.507 2.75748 130.558L2.89052 128.562ZM1.88458 127.964L2.14058 126.684L0.179419 126.292L-0.0765809 127.572L1.88458 127.964ZM2.08468 126.869C3.27477 123.979 4.97766 120.019 7.19509 114.987L5.36491 114.181C3.145 119.218 1.43456 123.195 0.235322 126.107L2.08468 126.869ZM7.18931 115C9.47796 109.999 14.2417 100.767 21.4967 87.2818L19.7354 86.3342C12.4836 99.8139 7.69004 109.1 5.37069 114.168L7.18931 115ZM21.4979 87.2795C28.7368 73.7384 36.1428 61.3958 43.7152 50.25L42.0608 49.126C34.4439 60.3375 27.0018 72.7416 19.7341 86.3365L21.4979 87.2795ZM43.7113 50.2556C47.5893 44.6303 50.7884 40.1883 53.3113 36.9234C55.8578 33.628 57.6546 31.6134 58.7378 30.7623L57.5022 29.1897C56.196 30.2159 54.2596 32.4253 51.7287 35.7005C49.1742 39.0064 45.952 43.4817 42.0647 49.1204L43.7113 50.2556ZM58.7659 30.7394C59.789 29.8737 60.5894 29.568 61.192 29.568V27.568C59.9173 27.568 58.6697 28.201 57.4741 29.2126L58.7659 30.7394ZM61.192 29.568C61.2714 29.568 61.2972 29.5794 61.2889 29.5763C61.284 29.5745 61.2721 29.5694 61.2565 29.5588C61.2407 29.5482 61.2256 29.5349 61.2126 29.5204C61.1852 29.4896 61.1852 29.4732 61.1932 29.5001C61.2022 29.5304 61.216 29.5988 61.216 29.72H63.216C63.216 29.209 63.105 28.6389 62.7074 28.1916C62.2899 27.7219 61.72 27.568 61.192 27.568V29.568ZM61.216 29.72C61.216 30.2006 60.9934 31.1457 60.4173 32.6605C59.8569 34.1342 59.0079 36.0339 57.8623 38.3673L59.6577 39.2487C60.8162 36.8888 61.6951 34.9271 62.2867 33.3714C62.8626 31.857 63.216 30.6047 63.216 29.72H61.216ZM57.8623 38.3673C55.5641 43.0489 53.5711 46.8217 51.8821 49.693L53.6059 50.707C55.3303 47.7756 57.3479 43.9537 59.6577 39.2487L57.8623 38.3673ZM51.8696 49.7149C31.9927 85.5444 19.583 109.927 14.6892 122.805L16.5588 123.515C21.393 110.793 33.73 86.5356 53.6185 50.6851L51.8696 49.7149ZM14.6753 122.844C14.5578 123.196 14.496 123.559 14.496 123.928H16.496C16.496 123.785 16.5195 123.636 16.5727 123.476L14.6753 122.844ZM14.496 123.928C14.496 124.472 14.6392 124.991 14.9515 125.446C15.2585 125.893 15.6895 126.222 16.1791 126.46C17.131 126.922 18.4337 127.104 19.976 127.104V125.104C18.5316 125.104 17.5943 124.923 17.0529 124.66C16.7959 124.536 16.6668 124.411 16.6005 124.314C16.5395 124.225 16.496 124.11 16.496 123.928H14.496ZM19.976 127.104C26.0128 127.104 31.5982 125.145 36.7084 121.269L35.4996 119.675C30.7111 123.308 25.5446 125.104 19.976 125.104V127.104ZM36.7298 121.252C44.1306 115.314 50.7567 108.559 56.6073 100.987L55.0247 99.7646C49.2699 107.212 42.7547 113.854 35.4782 119.692L36.7298 121.252ZM56.5231 101.083C57.0968 100.509 57.5401 100.352 57.864 100.352V98.352C56.8226 98.352 55.9006 98.8772 55.1089 99.6689L56.5231 101.083ZM57.864 100.352C57.9322 100.352 57.9459 100.363 57.9274 100.355C57.9028 100.345 57.8724 100.323 57.8511 100.297C57.8336 100.275 57.8434 100.276 57.8578 100.33C57.8727 100.386 57.888 100.482 57.888 100.632H59.888C59.888 100.098 59.7857 99.5133 59.4129 99.0473C59.006 98.5387 58.426 98.352 57.864 98.352V100.352ZM57.888 100.632C57.888 100.905 57.8071 101.376 57.582 102.092C57.3622 102.791 57.0256 103.662 56.5647 104.709L58.3953 105.515C58.873 104.429 59.2404 103.486 59.49 102.692C59.7342 101.915 59.888 101.212 59.888 100.632H57.888ZM56.5719 104.693C53.8048 110.696 51.3759 115.52 49.2841 119.175C47.1786 122.855 45.458 125.271 44.1226 126.528L45.4934 127.984C47.0593 126.51 48.9014 123.871 51.0199 120.169C53.1521 116.443 55.6085 111.56 58.3882 105.531L56.5719 104.693Z" fill="#40197B"/>
<path d="M49.808 124.256C48.9547 125.109 47.888 125.621 46.608 125.792C41.4027 126.475 33.4667 126.816 22.8 126.816L7.824 126.56C6.544 126.475 5.904 125.877 5.904 124.768L6.16 123.488C7.35467 120.587 9.06133 116.619 11.28 111.584C13.584 106.549 18.3627 97.2907 25.616 83.808C32.8693 70.24 40.2933 57.8667 47.888 46.688C55.6533 35.424 60.7307 28.8533 63.12 26.976C64.2293 26.0373 65.2533 25.568 66.192 25.568C66.8747 25.568 67.216 25.952 67.216 26.72C67.216 28.0853 66.064 31.1147 63.76 35.808C61.456 40.5013 59.4507 44.2987 57.744 47.2C37.8613 83.04 25.488 107.36 20.624 120.16C20.5387 120.416 20.496 120.672 20.496 120.928C20.496 122.379 21.9893 123.104 24.976 123.104C30.7787 123.104 36.1547 121.227 41.104 117.472C48.4427 111.584 55.0133 104.885 60.816 97.376C61.4987 96.6933 62.1813 96.352 62.864 96.352C63.5467 96.352 63.888 96.7787 63.888 97.632C63.888 98.4853 63.4187 99.9787 62.48 102.112C56.9333 114.144 52.7093 121.525 49.808 124.256Z" fill="#40197B"/>
<path d="M49.808 124.256L49.1226 123.528L49.1116 123.538L49.1009 123.549L49.808 124.256ZM46.608 125.792L46.738 126.784L46.7402 126.783L46.608 125.792ZM22.8 126.816L22.7829 127.816L22.7915 127.816H22.8V126.816ZM7.824 126.56L7.75748 127.558L7.78217 127.559L7.80691 127.56L7.824 126.56ZM5.904 124.768L4.92342 124.572L4.904 124.669V124.768H5.904ZM6.16 123.488L5.23532 123.107L5.19842 123.197L5.17942 123.292L6.16 123.488ZM11.28 111.584L10.3706 111.168L10.3649 111.181L11.28 111.584ZM25.616 83.808L26.4967 84.2818L26.4979 84.2795L25.616 83.808ZM47.888 46.688L47.0647 46.1204L47.0608 46.126L47.888 46.688ZM63.12 26.976L63.7378 27.7623L63.7521 27.7511L63.7659 27.7394L63.12 26.976ZM57.744 47.2L56.8821 46.693L56.8757 46.7039L56.8696 46.7149L57.744 47.2ZM20.624 120.16L19.6892 119.805L19.6819 119.824L19.6753 119.844L20.624 120.16ZM41.104 117.472L41.7084 118.269L41.7192 118.26L41.7298 118.252L41.104 117.472ZM60.816 97.376L60.1089 96.6689L60.0638 96.714L60.0247 96.7646L60.816 97.376ZM62.48 102.112L63.3882 102.531L63.3918 102.523L63.3953 102.515L62.48 102.112ZM49.1009 123.549C48.414 124.236 47.5545 124.657 46.4758 124.801L46.7402 126.783C48.2216 126.586 49.4953 125.983 50.5151 124.963L49.1009 123.549ZM46.478 124.8C41.3402 125.474 33.4579 125.816 22.8 125.816V127.816C33.4754 127.816 41.4652 127.475 46.738 126.784L46.478 124.8ZM22.8171 125.816L7.84109 125.56L7.80691 127.56L22.7829 127.816L22.8171 125.816ZM7.89052 125.562C7.37671 125.528 7.15503 125.4 7.06632 125.317C7.0001 125.255 6.904 125.124 6.904 124.768H4.904C4.904 125.521 5.12789 126.244 5.70168 126.779C6.25297 127.294 6.99129 127.507 7.75748 127.558L7.89052 125.562ZM6.88458 124.964L7.14058 123.684L5.17942 123.292L4.92342 124.572L6.88458 124.964ZM7.08468 123.869C8.27477 120.979 9.97766 117.019 12.1951 111.987L10.3649 111.181C8.145 116.218 6.43456 120.195 5.23532 123.107L7.08468 123.869ZM12.1893 112C14.478 106.999 19.2417 97.7674 26.4967 84.2818L24.7354 83.3342C17.4836 96.8139 12.69 106.1 10.3707 111.168L12.1893 112ZM26.4979 84.2795C33.7368 70.7384 41.1428 58.3958 48.7152 47.25L47.0608 46.126C39.4439 57.3375 32.0018 69.7416 24.7341 83.3365L26.4979 84.2795ZM48.7113 47.2556C52.5893 41.6303 55.7884 37.1883 58.3113 33.9234C60.8578 30.628 62.6546 28.6134 63.7378 27.7623L62.5022 26.1897C61.196 27.2159 59.2596 29.4253 56.7287 32.7005C54.1742 36.0064 50.952 40.4817 47.0647 46.1204L48.7113 47.2556ZM63.7659 27.7394C64.789 26.8737 65.5894 26.568 66.192 26.568V24.568C64.9173 24.568 63.6697 25.201 62.4741 26.2126L63.7659 27.7394ZM66.192 26.568C66.2714 26.568 66.2972 26.5794 66.2889 26.5763C66.284 26.5745 66.2721 26.5694 66.2565 26.5588C66.2407 26.5482 66.2256 26.5349 66.2126 26.5204C66.1852 26.4896 66.1852 26.4732 66.1932 26.5001C66.2022 26.5304 66.216 26.5988 66.216 26.72H68.216C68.216 26.209 68.105 25.6389 67.7074 25.1916C67.2899 24.7219 66.72 24.568 66.192 24.568V26.568ZM66.216 26.72C66.216 27.2006 65.9934 28.1457 65.4173 29.6605C64.8569 31.1342 64.0079 33.0339 62.8623 35.3673L64.6577 36.2487C65.8162 33.8888 66.6951 31.9271 67.2867 30.3714C67.8626 28.857 68.216 27.6047 68.216 26.72H66.216ZM62.8623 35.3673C60.5641 40.0489 58.5711 43.8217 56.8821 46.693L58.6059 47.707C60.3303 44.7756 62.3479 40.9537 64.6577 36.2487L62.8623 35.3673ZM56.8696 46.7149C36.9927 82.5444 24.583 106.927 19.6892 119.805L21.5588 120.515C26.393 107.793 38.73 83.5356 58.6185 47.6851L56.8696 46.7149ZM19.6753 119.844C19.5578 120.196 19.496 120.559 19.496 120.928H21.496C21.496 120.785 21.5195 120.636 21.5727 120.476L19.6753 119.844ZM19.496 120.928C19.496 121.472 19.6392 121.991 19.9515 122.446C20.2585 122.893 20.6895 123.222 21.1791 123.46C22.131 123.922 23.4337 124.104 24.976 124.104V122.104C23.5316 122.104 22.5943 121.923 22.0529 121.66C21.7959 121.536 21.6668 121.411 21.6005 121.314C21.5395 121.225 21.496 121.11 21.496 120.928H19.496ZM24.976 124.104C31.0128 124.104 36.5982 122.145 41.7084 118.269L40.4996 116.675C35.7111 120.308 30.5446 122.104 24.976 122.104V124.104ZM41.7298 118.252C49.1306 112.314 55.7567 105.559 61.6073 97.9874L60.0247 96.7646C54.2699 104.212 47.7547 110.854 40.4782 116.692L41.7298 118.252ZM61.5231 98.0831C62.0968 97.5094 62.5401 97.352 62.864 97.352V95.352C61.8226 95.352 60.9006 95.8772 60.1089 96.6689L61.5231 98.0831ZM62.864 97.352C62.9322 97.352 62.9459 97.3628 62.9274 97.3551C62.9028 97.3448 62.8724 97.3232 62.8511 97.2967C62.8336 97.2748 62.8434 97.2757 62.8578 97.3297C62.8727 97.3855 62.888 97.4821 62.888 97.632H64.888C64.888 97.0985 64.7857 96.5133 64.4129 96.0473C64.006 95.5387 63.426 95.352 62.864 95.352V97.352ZM62.888 97.632C62.888 97.905 62.8071 98.3759 62.582 99.0922C62.3622 99.7914 62.0256 100.662 61.5647 101.709L63.3953 102.515C63.873 101.429 64.2404 100.486 64.49 99.6918C64.7342 98.9148 64.888 98.2123 64.888 97.632H62.888ZM61.5719 101.693C58.8048 107.696 56.3759 112.52 54.2841 116.175C52.1786 119.855 50.458 122.271 49.1226 123.528L50.4934 124.984C52.0593 123.51 53.9014 120.871 56.0199 117.169C58.1521 113.443 60.6085 108.56 63.3882 102.531L61.5719 101.693Z" fill="#B082B0"/>
</svg>
